<svg width="72" height="44" viewBox="0 0 72 44" fill="none" xmlns="http://www.w3.org/2000/svg">
<path d="M6.53262 18.4634C7.34329 18.4634 7.96196 17.9621 8.38862 16.9594C8.82596 15.9567 9.04462 14.3034 9.04462 11.9994V10.3834C9.04462 8.69807 8.84196 7.39674 8.43663 6.4794C8.03129 5.56207 7.45529 5.1034 6.70863 5.1034H5.50862V18.4634H6.53262ZM7.02862 21.1994C6.64462 21.1994 6.04729 21.1781 5.23663 21.1354C4.43663 21.1034 3.60996 21.0874 2.75663 21.0874H0.212625V2.3354H2.75663C3.47129 2.32474 4.24996 2.29807 5.09262 2.2554C5.93529 2.21274 6.59662 2.1914 7.07662 2.1914C9.79663 2.1914 11.7433 2.95407 12.9166 4.4794C14.1006 6.00474 14.6926 8.22874 14.6926 11.1514C14.6926 12.1434 14.6233 13.0874 14.4846 13.9834C14.3566 14.8794 14.1113 15.7807 13.7486 16.6874C13.386 17.5834 12.9273 18.3567 12.3726 19.0074C11.818 19.6581 11.082 20.1861 10.1646 20.5914C9.24729 20.9967 8.20196 21.1994 7.02862 21.1994ZM15.773 21.0874V10.7354L14.813 10.1434V8.4314L18.253 7.4874H20.925V21.0874H15.773ZM18.093 6.0154L15.469 3.3754V2.8154L18.093 0.191402H18.701L21.437 2.8154V3.3754L18.701 6.0154H18.093ZM28.6924 26.7354C27.8604 26.7354 26.9217 26.5434 25.8764 26.1594C24.831 25.7861 24.1537 25.4287 23.8444 25.0874L24.8524 22.8954C25.119 23.0981 25.551 23.2847 26.1484 23.4554C26.7457 23.6261 27.2577 23.7114 27.6844 23.7114C28.111 23.7114 28.479 23.6527 28.7884 23.5354C29.1084 23.4287 29.3537 23.2901 29.5244 23.1194C29.695 22.9594 29.8337 22.7567 29.9404 22.5114C30.047 22.2767 30.111 22.0634 30.1324 21.8714C30.1644 21.6794 30.1857 21.4661 30.1964 21.2314V19.8714C29.2897 20.8101 28.1857 21.2794 26.8844 21.2794C25.1244 21.2794 23.8337 20.6767 23.0124 19.4714C22.191 18.2661 21.7804 16.5914 21.7804 14.4474C21.7804 13.4447 21.8924 12.5221 22.1164 11.6794C22.3404 10.8261 22.6657 10.0794 23.0924 9.4394C23.5297 8.78874 24.095 8.28207 24.7884 7.9194C25.4817 7.54607 26.2657 7.3594 27.1404 7.3594C28.463 7.3594 29.6097 7.65274 30.5804 8.2394L30.8524 7.4874H33.3004L36.3084 7.6314V9.1354L35.3484 9.8074V20.4954C35.3484 24.6554 33.1297 26.7354 28.6924 26.7354ZM29.2044 18.3674C29.5244 18.3674 29.855 18.2767 30.1964 18.0954V9.6634C29.9404 9.61007 29.7057 9.5834 29.4924 9.5834C28.0737 9.59407 27.359 10.6874 27.3484 12.8634V15.3434C27.3484 16.0261 27.439 16.6127 27.6204 17.1034C27.9404 17.9461 28.4684 18.3674 29.2044 18.3674ZM36.9793 21.0874V10.7354L36.0193 10.1434V8.4314L39.4593 7.4874H42.1313V21.0874H36.9793ZM39.2993 6.0154L36.6753 3.3754V2.8154L39.2993 0.191402H39.9073L42.6433 2.8154V3.3754L39.9073 6.0154H39.2993ZM47.4826 21.4234C46.0426 21.4234 45.0346 20.9914 44.4586 20.1274C43.8933 19.2634 43.6106 17.8021 43.6106 15.7434V10.3034H42.5066V8.0794L44.3946 7.4874L46.0266 3.7594H48.8426V7.4874H51.4666V10.3034H48.7946V16.2554C48.7946 17.1087 48.9173 17.6741 49.1626 17.9514C49.408 18.2287 49.7866 18.3674 50.2986 18.3674C50.5226 18.3674 50.7253 18.3407 50.9066 18.2874C51.088 18.2341 51.2373 18.1594 51.3546 18.0634V20.2394C51.1946 20.3994 50.9866 20.5594 50.7306 20.7194C50.4746 20.8687 50.048 21.0234 49.4506 21.1834C48.864 21.3434 48.208 21.4234 47.4826 21.4234ZM59.1913 19.6634L59.0313 19.8394C58.9246 19.9674 58.7592 20.1167 58.5352 20.2874C58.3219 20.4581 58.0712 20.6287 57.7832 20.7994C57.5059 20.9701 57.1646 21.1141 56.7593 21.2314C56.3539 21.3594 55.9379 21.4234 55.5113 21.4234C52.6313 21.4234 51.1913 19.9994 51.1913 17.1514C51.1913 16.5967 51.2926 16.0901 51.4952 15.6314C51.6979 15.1621 51.9592 14.7674 52.2793 14.4474C52.5992 14.1274 52.9832 13.8447 53.4313 13.5994C53.8792 13.3434 54.3272 13.1461 54.7753 13.0074C55.2339 12.8581 55.7139 12.7354 56.2152 12.6394C56.7166 12.5434 57.1646 12.4794 57.5592 12.4474C57.9539 12.4154 58.3326 12.3994 58.6953 12.3994V12.1114C58.6953 11.4607 58.5193 11.0021 58.1672 10.7354C57.8259 10.4687 57.2712 10.3354 56.5033 10.3354C55.8419 10.3354 55.1539 10.4154 54.4393 10.5754C53.7246 10.7247 53.1646 10.9061 52.7592 11.1194L51.7352 8.9434C52.4606 8.47407 53.4046 8.0634 54.5673 7.7114C55.7299 7.34874 56.9139 7.1674 58.1192 7.1674C59.1859 7.1674 60.0659 7.27407 60.7593 7.4874C61.4526 7.69007 62.0126 8.04207 62.4392 8.5434C62.8766 9.03407 63.1859 9.6634 63.3672 10.4314C63.5486 11.1887 63.6393 12.1541 63.6393 13.3274V19.8394L64.0872 21.0874H59.7033L59.1913 19.6634ZM57.9273 18.6074C58.0659 18.6074 58.1939 18.5807 58.3113 18.5274C58.4392 18.4634 58.5352 18.4047 58.5993 18.3514C58.6633 18.2874 58.6953 18.2554 58.6953 18.2554V14.4154C58.0446 14.4154 57.5273 14.5967 57.1432 14.9594C56.7592 15.3114 56.5673 15.8607 56.5673 16.6074C56.5673 17.9407 57.0206 18.6074 57.9273 18.6074ZM64.9095 21.0874V2.9914L63.9495 2.4154V0.927403L69.0855 0.127402H70.1255V21.0874H64.9095ZM9.28463 43.0874C9.15662 42.9274 8.87929 42.3034 8.45262 41.2154C8.03662 40.1167 7.54596 38.8794 6.98062 37.5034C6.42596 36.1167 5.93529 35.0661 5.50862 34.3514V43.0874H0.212625V24.3354H5.50862V33.3114L9.49262 24.3354H14.8206L10.0526 33.1354C10.362 33.3487 10.7726 33.9301 11.2846 34.8794C11.7966 35.8287 12.2766 36.8261 12.7246 37.8714C13.1726 38.9167 13.6366 39.9674 14.1166 41.0234C14.5966 42.0687 14.9486 42.7567 15.1726 43.0874H9.28463ZM15.5855 43.0874V32.7354L14.6255 32.1434V30.4314L18.0655 29.4874H20.7375V43.0874H15.5855ZM17.9055 28.0154L15.2815 25.3754V24.8154L17.9055 22.1914H18.5135L21.2495 24.8154V25.3754L18.5135 28.0154H17.9055ZM27.5129 43.0874H22.3449V32.7354L21.3849 32.1434V30.3354L24.8249 29.4874H26.1209L26.5849 33.2954C27.0222 30.6821 28.4249 29.3754 30.7929 29.3754C31.0595 29.3754 31.3369 29.4234 31.6249 29.5194L31.0809 35.2154C30.8569 35.0127 30.3662 34.9114 29.6089 34.9114C28.5209 34.9114 27.8222 35.1994 27.5129 35.7754V43.0874ZM39.2038 41.6634L39.0438 41.8394C38.9371 41.9674 38.7718 42.1167 38.5478 42.2874C38.3344 42.4581 38.0838 42.6287 37.7958 42.7994C37.5184 42.9701 37.1771 43.1141 36.7718 43.2314C36.3664 43.3594 35.9504 43.4234 35.5238 43.4234C32.6438 43.4234 31.2038 41.9994 31.2038 39.1514C31.2038 38.5967 31.3051 38.0901 31.5078 37.6314C31.7104 37.1621 31.9718 36.7674 32.2918 36.4474C32.6118 36.1274 32.9958 35.8447 33.4438 35.5994C33.8918 35.3434 34.3398 35.1461 34.7878 35.0074C35.2464 34.8581 35.7264 34.7354 36.2278 34.6394C36.7291 34.5434 37.1771 34.4794 37.5718 34.4474C37.9664 34.4154 38.3451 34.3994 38.7078 34.3994V34.1114C38.7078 33.4607 38.5318 33.0021 38.1798 32.7354C37.8384 32.4687 37.2838 32.3354 36.5158 32.3354C35.8544 32.3354 35.1664 32.4154 34.4518 32.5754C33.7371 32.7247 33.1771 32.9061 32.7718 33.1194L31.7478 30.9434C32.4731 30.4741 33.4171 30.0634 34.5798 29.7114C35.7424 29.3487 36.9264 29.1674 38.1318 29.1674C39.1984 29.1674 40.0784 29.2741 40.7718 29.4874C41.4651 29.6901 42.0251 30.0421 42.4518 30.5434C42.8891 31.0341 43.1984 31.6634 43.3798 32.4314C43.5611 33.1887 43.6518 34.1541 43.6518 35.3274V41.8394L44.0998 43.0874H39.7158L39.2038 41.6634ZM37.9398 40.6074C38.0784 40.6074 38.2064 40.5807 38.3238 40.5274C38.4518 40.4634 38.5478 40.4047 38.6118 40.3514C38.6758 40.2874 38.7078 40.2554 38.7078 40.2554V36.4154C38.0571 36.4154 37.5398 36.5967 37.1558 36.9594C36.7718 37.3114 36.5798 37.8607 36.5798 38.6074C36.5798 39.9407 37.0331 40.6074 37.9398 40.6074ZM50.266 43.0874H45.098V32.7354L44.138 32.1434V30.4314L47.578 29.4874H50.298V31.5514L50.49 31.3114C50.618 31.1407 50.8047 30.9381 51.05 30.7034C51.306 30.4687 51.5887 30.2394 51.898 30.0154C52.2073 29.7807 52.5753 29.5834 53.002 29.4234C53.4393 29.2527 53.866 29.1674 54.282 29.1674C55.7433 29.1674 56.7727 29.5674 57.37 30.3674C57.978 31.1674 58.282 32.5061 58.282 34.3834C58.282 34.4474 58.282 34.5434 58.282 34.6714C58.2713 34.7994 58.266 34.9007 58.266 34.9754V43.0874H52.986V34.5114C53.018 33.5087 52.5913 33.0074 51.706 33.0074C51.642 33.0074 51.578 33.0127 51.514 33.0234C51.4607 33.0341 51.4073 33.0447 51.354 33.0554C51.3113 33.0661 51.258 33.0874 51.194 33.1194C51.1407 33.1407 51.0927 33.1621 51.05 33.1834C51.0073 33.1941 50.9593 33.2207 50.906 33.2634C50.8527 33.2954 50.81 33.3221 50.778 33.3434C50.746 33.3647 50.698 33.4021 50.634 33.4554C50.5807 33.4981 50.538 33.5301 50.506 33.5514C50.4847 33.5727 50.442 33.6101 50.378 33.6634C50.3247 33.7061 50.2873 33.7381 50.266 33.7594V43.0874ZM66.5975 41.6634L66.4375 41.8394C66.3308 41.9674 66.1655 42.1167 65.9415 42.2874C65.7282 42.4581 65.4775 42.6287 65.1895 42.7994C64.9122 42.9701 64.5708 43.1141 64.1655 43.2314C63.7602 43.3594 63.3442 43.4234 62.9175 43.4234C60.0375 43.4234 58.5975 41.9994 58.5975 39.1514C58.5975 38.5967 58.6988 38.0901 58.9015 37.6314C59.1042 37.1621 59.3655 36.7674 59.6855 36.4474C60.0055 36.1274 60.3895 35.8447 60.8375 35.5994C61.2855 35.3434 61.7335 35.1461 62.1815 35.0074C62.6402 34.8581 63.1202 34.7354 63.6215 34.6394C64.1228 34.5434 64.5708 34.4794 64.9655 34.4474C65.3602 34.4154 65.7388 34.3994 66.1015 34.3994V34.1114C66.1015 33.4607 65.9255 33.0021 65.5735 32.7354C65.2322 32.4687 64.6775 32.3354 63.9095 32.3354C63.2482 32.3354 62.5602 32.4154 61.8455 32.5754C61.1308 32.7247 60.5708 32.9061 60.1655 33.1194L59.1415 30.9434C59.8668 30.4741 60.8108 30.0634 61.9735 29.7114C63.1362 29.3487 64.3202 29.1674 65.5255 29.1674C66.5922 29.1674 67.4722 29.2741 68.1655 29.4874C68.8588 29.6901 69.4188 30.0421 69.8455 30.5434C70.2828 31.0341 70.5922 31.6634 70.7735 32.4314C70.9548 33.1887 71.0455 34.1541 71.0455 35.3274V41.8394L71.4935 43.0874H67.1095L66.5975 41.6634ZM65.3335 40.6074C65.4722 40.6074 65.6002 40.5807 65.7175 40.5274C65.8455 40.4634 65.9415 40.4047 66.0055 40.3514C66.0695 40.2874 66.1015 40.2554 66.1015 40.2554V36.4154C65.4508 36.4154 64.9335 36.5967 64.5495 36.9594C64.1655 37.3114 63.9735 37.8607 63.9735 38.6074C63.9735 39.9407 64.4268 40.6074 65.3335 40.6074Z" fill="white"/>
</svg>
